<svg width="17" height="9" viewBox="0 0 17 9" fill="none" xmlns="http://www.w3.org/2000/svg">
<path d="M1.104 2.472C1.104 2.768 1.176 3.032 1.32 3.264C1.472 3.488 1.656 3.684 1.872 3.852C2.088 4.012 2.384 4.212 2.76 4.452C3.168 4.708 3.488 4.928 3.72 5.112C3.96 5.296 4.164 5.524 4.332 5.796C4.5 6.06 4.584 6.372 4.584 6.732C4.584 7.14 4.476 7.504 4.26 7.824C4.052 8.144 3.752 8.396 3.36 8.58C2.976 8.756 2.536 8.844 2.04 8.844C1.704 8.844 1.356 8.8 0.996002 8.712C0.644002 8.624 0.376002 8.516 0.192002 8.388C0.120002 8.34 0.0800016 8.264 0.0720016 8.16L1.63913e-06 6.348V6.336C1.63913e-06 6.304 0.0200016 6.288 0.0600017 6.288C0.100002 6.28 0.124002 6.292 0.132002 6.324C0.396002 6.98 0.696002 7.52 1.032 7.944C1.376 8.368 1.808 8.58 2.328 8.58C2.68 8.58 2.972 8.488 3.204 8.304C3.436 8.112 3.552 7.796 3.552 7.356C3.552 7.004 3.472 6.696 3.312 6.432C3.16 6.168 2.968 5.948 2.736 5.772C2.512 5.596 2.204 5.38 1.812 5.124C1.428 4.876 1.128 4.668 0.912002 4.5C0.696002 4.324 0.512002 4.112 0.360002 3.864C0.208002 3.608 0.132002 3.312 0.132002 2.976C0.132002 2.56 0.248002 2.208 0.480002 1.92C0.712002 1.632 1.012 1.42 1.38 1.284C1.756 1.14 2.148 1.068 2.556 1.068C2.82 1.068 3.088 1.096 3.36 1.152C3.632 1.2 3.864 1.264 4.056 1.344C4.176 1.392 4.236 1.468 4.236 1.572L4.26 3.192C4.26 3.224 4.24 3.244 4.2 3.252C4.168 3.26 4.144 3.252 4.128 3.228C3.968 2.74 3.752 2.3 3.48 1.908C3.216 1.508 2.816 1.308 2.28 1.308C1.92 1.308 1.632 1.416 1.416 1.632C1.208 1.84 1.104 2.12 1.104 2.472ZM8.37403 8.856C7.66203 8.856 7.04203 8.62 6.51403 8.148L7.21003 6.864C7.21003 7.272 7.28603 7.608 7.43803 7.872C7.59803 8.136 7.79003 8.328 8.01403 8.448C8.24603 8.56 8.47003 8.616 8.68603 8.616C9.07803 8.616 9.37803 8.44 9.58603 8.088C9.79403 7.736 9.89803 7.236 9.89803 6.588C9.89803 5.884 9.77403 5.356 9.52603 5.004C9.27803 4.644 8.93803 4.464 8.50603 4.464C8.05003 4.464 7.56603 4.696 7.05403 5.16L6.94603 5.064C7.29003 4.704 7.61403 4.424 7.91803 4.224C8.23003 4.016 8.59403 3.912 9.01003 3.912C9.36203 3.912 9.68603 3.996 9.98203 4.164C10.286 4.332 10.526 4.584 10.702 4.92C10.886 5.256 10.978 5.664 10.978 6.144C10.978 6.72 10.854 7.212 10.606 7.62C10.366 8.028 10.046 8.336 9.64603 8.544C9.24603 8.752 8.82203 8.856 8.37403 8.856ZM5.65003 8.772C5.61803 8.772 5.59803 8.756 5.59003 8.724C5.58203 8.7 5.59003 8.68 5.61403 8.664C5.83003 8.528 5.98603 8.372 6.08203 8.196C6.18603 8.012 6.23803 7.768 6.23803 7.464V1.596C6.23803 1.316 6.21003 1.116 6.15403 0.996001C6.10603 0.868 6.01403 0.804 5.87803 0.804C5.75003 0.804 5.59003 0.852 5.39803 0.948H5.38603C5.35403 0.948 5.33003 0.928 5.31403 0.888C5.29803 0.848001 5.29803 0.82 5.31403 0.804L6.98203 0.0120003L7.04203 4.76837e-07C7.07403 4.76837e-07 7.11003 0.0160005 7.15003 0.0480006C7.19003 0.0800006 7.21003 0.108001 7.21003 0.132V8.064L5.67403 8.772H5.65003ZM13.3501 2.472C13.3501 2.768 13.4221 3.032 13.5661 3.264C13.7181 3.488 13.9021 3.684 14.1181 3.852C14.3341 4.012 14.6301 4.212 15.0061 4.452C15.4141 4.708 15.7341 4.928 15.9661 5.112C16.2061 5.296 16.4101 5.524 16.5781 5.796C16.7461 6.06 16.8301 6.372 16.8301 6.732C16.8301 7.14 16.7221 7.504 16.5061 7.824C16.2981 8.144 15.9981 8.396 15.6061 8.58C15.2221 8.756 14.7821 8.844 14.2861 8.844C13.9501 8.844 13.6021 8.8 13.2421 8.712C12.8901 8.624 12.6221 8.516 12.4381 8.388C12.3661 8.34 12.3261 8.264 12.3181 8.16L12.2461 6.348V6.336C12.2461 6.304 12.2661 6.288 12.3061 6.288C12.3461 6.28 12.3701 6.292 12.3781 6.324C12.6421 6.98 12.9421 7.52 13.2781 7.944C13.6221 8.368 14.0541 8.58 14.5741 8.58C14.9261 8.58 15.2181 8.488 15.4501 8.304C15.6821 8.112 15.7981 7.796 15.7981 7.356C15.7981 7.004 15.7181 6.696 15.5581 6.432C15.4061 6.168 15.2141 5.948 14.9821 5.772C14.7581 5.596 14.4501 5.38 14.0581 5.124C13.6741 4.876 13.3741 4.668 13.1581 4.5C12.9421 4.324 12.7581 4.112 12.6061 3.864C12.4541 3.608 12.3781 3.312 12.3781 2.976C12.3781 2.56 12.4941 2.208 12.7261 1.92C12.9581 1.632 13.2581 1.42 13.6261 1.284C14.0021 1.14 14.3941 1.068 14.8021 1.068C15.0661 1.068 15.3341 1.096 15.6061 1.152C15.8781 1.2 16.1101 1.264 16.3021 1.344C16.4221 1.392 16.4821 1.468 16.4821 1.572L16.5061 3.192C16.5061 3.224 16.4861 3.244 16.4461 3.252C16.4141 3.26 16.3901 3.252 16.3741 3.228C16.2141 2.74 15.9981 2.3 15.7261 1.908C15.4621 1.508 15.0621 1.308 14.5261 1.308C14.1661 1.308 13.8781 1.416 13.6621 1.632C13.4541 1.84 13.3501 2.12 13.3501 2.472Z" fill="black"/>
</svg>
