<svg xmlns="http://www.w3.org/2000/svg" viewBox="0 0 193.58 43.35" fill="var(--background)"><g id="Layer_2" data-name="Layer 2"><g id="Layer_1-2" data-name="Layer 1"><path d="M24.3376,30.8477H13.8188v-18.55h9.7059a4.7781,4.7781,0,0,1,1.0876.1309,5.6653,5.6653,0,0,1,1.1.3827,6.2952,6.2952,0,0,1,1.0038.5853,4.2164,4.2164,0,0,1,.8009.7412,5.3575,5.3575,0,0,1,.92,1.6017,5.2664,5.2664,0,0,1,.3227,1.8168,5.138,5.138,0,0,1-.43,2.0677,5.0268,5.0268,0,0,1-1.2432,1.7334,4.93,4.93,0,0,1,.9684.8129,5.1988,5.1988,0,0,1,.7529,1.0522,5.8867,5.8867,0,0,1,.49,1.2073,4.5085,4.5085,0,0,1,.18,1.2307,5.1228,5.1228,0,0,1-.3948,1.996,5.0655,5.0655,0,0,1-1.0994,1.65,5.4429,5.4429,0,0,1-1.6379,1.1231A4.8393,4.8393,0,0,1,24.3376,30.8477ZM22.0185,16.0258h-3.323v3.7778h3.323a1.889,1.889,0,0,0,0-3.7778Zm.1676,7.1479H18.6955v3.7536h3.4906a1.8783,1.8783,0,0,0,1.8885-1.8885,1.7947,1.7947,0,0,0-.55-1.3148A1.8217,1.8217,0,0,0,22.1861,23.1737Z"/><path d="M33.987,30.8477v-18.55h5.14V26.2578H48.88v4.59Z"/><polygon points="62.857 12.297 58.482 12.297 51.621 30.848 56.856 30.848 60.681 19.062 64.482 30.848 69.718 30.848 62.857 12.297"/><path d="M75.1963,30.4291A10.4053,10.4053,0,0,1,71.694,27.62l3.9446-3.2033a5.3562,5.3562,0,0,0,1.733,1.4825,4.4946,4.4946,0,0,0,2.1394.5261,4.3439,4.3439,0,0,0,1.8526-.3944,4.7674,4.7674,0,0,0,1.47-1.0522,4.9123,4.9123,0,0,0,.98-1.53,4.8207,4.8207,0,0,0,.3585-1.8526,4.7618,4.7618,0,0,0-.3585-1.8285,5.0813,5.0813,0,0,0-.98-1.5424,4.4859,4.4859,0,0,0-1.482-1.0514,4.5369,4.5369,0,0,0-1.8647-.3827,4.9787,4.9787,0,0,0-2.9166.98l-3.8249-3.3468a10.7445,10.7445,0,0,1,3.18-1.9718,9.65,9.65,0,0,1,3.5856-.6812,9.49,9.49,0,0,1,3.837.7771,9.817,9.817,0,0,1,3.1079,2.1269,10.1538,10.1538,0,0,1,2.0915,3.1316,9.7673,9.7673,0,0,1,0,7.5781,10.1138,10.1138,0,0,1-2.0915,3.1316,9.7934,9.7934,0,0,1-3.1079,2.1278,9.49,9.49,0,0,1-3.837.7771A9.661,9.661,0,0,1,75.1963,30.4291Z"/><path d="M101.38,21.07l7.3388,9.7776h-6.024l-5.0922-6.2391v6.2391H92.511v-18.55h5.0918v6.2391l5.0922-6.2391h6.2633Z"/><path d="M121.5954,25.0863h-3.3709v5.7614h-4.9717v-18.55h8.3426a7.3662,7.3662,0,0,1,2.57.4536,7.0365,7.0365,0,0,1,2.1753,1.2673,6.1027,6.1027,0,0,1,1.5066,1.96,5.6339,5.6339,0,0,1,.562,2.51,5.9929,5.9929,0,0,1-.562,2.5814A6.9226,6.9226,0,0,1,126.34,23.162a7.095,7.095,0,0,1-2.1753,1.4107A6.6034,6.6034,0,0,1,121.5954,25.0863Zm-.3585-8.6536h-2.8923v3.9921h2.8923a2.1428,2.1428,0,0,0,.8129-.1543,2.0892,2.0892,0,0,0,1.1231-1.0572,1.9182,1.9182,0,0,0,0-1.5683,2.1031,2.1031,0,0,0-.4535-.63,2.1306,2.1306,0,0,0-.67-.4277A2.16,2.16,0,0,0,121.2369,16.4327Z"/><path d="M132.3933,30.8477v-18.55h4.996V30.8477Z"/><path d="M141.7009,30.8235V12.2972h4.9725v9.9919l6.4542-9.9919h4.9251V30.8235h-4.9484V20.9267l-6.4309,9.8968Z"/><path d="M171.9214,21.07l7.3389,9.7776h-6.024l-5.0918-6.2391v6.2391h-5.0918v-18.55h5.0918v6.2391l5.0918-6.2391H179.5Z"/><path d="M193.5781,43.353H0V0H193.5781ZM4,39.353H189.5781V4H4Z"/></g></g></svg>