<svg xmlns="http://www.w3.org/2000/svg" fill="var(--background)" preserveAspectRatio="xMidYMid meet" focusable="false" role="img" viewBox="0.3 -0.01 192.4 20.01"><title>Modern Age</title><path d="M35.5 0a9.9 9.9 0 0 0-10.3 10c0 2.7 1 5.2 2.8 7 2 2 4.6 3 7.5 3 3 0 5.6-1 7.5-3a10 10 0 0 0 2.7-7c0-2.7-1-5.2-2.7-7-2-2-4.6-3-7.5-3zm130.6 0c-2.4 0-4.8 1-6.7 2.5a9.3 9.3 0 0 0-3.2 7.3 9.9 9.9 0 0 0 10 10.2c2.3 0 4.3-1 5.5-2.6l1.8 2.6h.5v-6.2l.1-1c.1-1 .5-1.7 1.3-2.1h.1v-.5h-6.3v.4c1 .6 1.4 1.5 1.4 3.2V16c-.9 1.6-2.8 2.1-4.1 2.1-4.2 0-6.6-3-6.6-8.4 0-4.8 2.6-8.2 6.3-8.2 2.5 0 5 1.7 6.7 4.6h.5V0h-.3c-.3.3-.6.6-1.7.6-.6 0-1 0-1.5-.2-.8-.2-1.8-.4-3.8-.4zM.3.6V1c.7.6 1 1.6 1 3v11.4c0 2-.3 2.9-1 3.6v.4h4.2v-.3c-.6-.8-1.1-1.5-1.1-3.7V4.2a7 7 0 0 0 1 2l6.7 9.3h.3L17.7 5l.3-.5.5-.9v11.7c0 2-.3 2.9-1 3.6v.4H23v-.3c-.6-.8-1-1.6-1-3.7V4c0-1.5.3-2.4 1-3V.6h-4.7l-6.6 10.7-.1-.5c-.2-.6-.4-1-.8-1.5L4.6.6H.3zM108 .6v.3c.5.5 1.2 1.5 1.2 3v11.5c0 2-.3 2.9-1 3.6v.4h4v-.3c-.5-.8-1-1.5-1-3.7V4.3a8.9 8.9 0 0 0 2 3l11.2 12.1h.5V3.1a4 4 0 0 1 .8-2.1V.5H122v.3c.7 1 1 1.6 1 3.2v9.6c-.4-1.1-1-2-1.8-2.9L111.7.6H108zm38.3 0L139 16c-.8 1.5-1.3 2.5-2.2 3.6v.4h4.5v-.4c-1-.6-1-1.4-.5-2.6l1.1-2.6h7.4l1.2 2.6c.6 1 .3 2 0 2.6v.4h5.7v-.4a10.4 10.4 0 0 1-2.3-3.5L146.6.6h-.3zm32.5 0v.3c.7.8 1 1.6 1 3.7v10.8c0 2-.3 2.9-1 3.6v.4h13.9V15h-.4a7 7 0 0 1-6.1 3h-3.4c.3-.5.4-1.2.4-2.2v-5h4.3a5 5 0 0 1 3.5 1v.1h.4V8h-.4a5 5 0 0 1-3.5 1.2h-4.3V4.3c0-1-.1-1.7-.4-2.2h4c2.6 0 4.4 1 5.4 3h.5V.6h-13.9zM48.8.8v.4c.7.8 1 1.6 1 3.7v11c0 2.1-.3 2.9-1 3.7v.4h6.4c7 0 11.3-3.8 11.3-10 0-5.4-4.2-9.2-10.3-9.2h-7.4zm20 0v.4c.7.8 1 1.6 1 3.7v11c0 2.1-.3 2.9-1 3.7v.4h14.6v-4.1H83c-1.5 1.8-3.5 2.6-6.4 2.6H73c.3-.5.4-1.3.4-2.3V11H78c1.6 0 2.8.5 3.7 1.4h.4V8h-.4c-1 1-2.1 1.5-3.7 1.5h-4.6v-5c0-1-.1-1.6-.4-2.2h4.2c2.7 0 4.4.8 5.8 2.5h.4v-4H68.8zm18.5 0v.4c.6.8 1 1.6 1 3.7v11c0 2.1-.4 2.9-1 3.7v.4h5.6v-.4c-.9-.7-1.2-1.7-1.2-3v-5.4h2.7c0 .6.1 1.2.6 1.8.4.7 4 4.8 4 5 .6.6.7 1.1.4 1.6v.4h5.6v-.4l-3-3.5a129 129 0 0 1-3.4-4.1 3.9 3.9 0 0 0-1.8-1.5c3.4-.4 5.4-2.3 5.4-5 0-3.2-2-4.7-6.2-4.7h-8.7zm-51.8.7c3.8 0 6.3 3.4 6.3 8.4 0 5.1-2.5 8.6-6.3 8.6s-6.3-3.5-6.3-8.6V9c.3-4.5 2.7-7.5 6.3-7.5zm56.2.4h3.5c2.4 0 3.7 1.4 3.7 4 0 2.2-1.3 3.5-3.5 3.9a7 7 0 0 1-1 0h-2.3V4.3c0-1.1-.1-1.8-.4-2.4zm-38.9.6h2.7c4.8 0 7.6 2.9 7.6 8 0 5.4-2.8 8.4-8 8.4h-2.3a5 5 0 0 0 .4-2.3V4.7c0-.7 0-1.6-.4-2.2zm92.8 4.1a226.1 226.1 0 0 1 2.9 5.6l.4.4h-6.1l2.8-6z"/></svg>